<?xml version="1.0" encoding="UTF-8"?>
<svg xmlns="http://www.w3.org/2000/svg" xmlns:xlink="http://www.w3.org/1999/xlink" width="24pt" height="24pt" viewBox="0 0 24 24" version="1.1">
<g id="surface1">
<path style=" stroke:none;fill-rule:evenodd;fill:rgb(0%,20%,62.745098%);fill-opacity:1;" d="M 14.410156 12.878906 C 13.761719 13.253906 13.351562 14.015625 13.351562 14.335938 C 13.351562 14.578125 13.164062 14.863281 12.910156 14.863281 L 10.257812 14.863281 C 10.015625 14.863281 9.863281 14.488281 9.863281 14.246094 L 9.863281 13.75 C 9.863281 12.414062 11.1875 11.265625 12.160156 10.824219 C 13.007812 10.4375 13.363281 10.074219 13.363281 9.367188 C 13.363281 8.746094 12.558594 8.195312 11.660156 8.195312 C 11.164062 8.195312 10.710938 8.347656 10.46875 8.515625 C 10.203125 8.703125 9.9375 8.96875 9.285156 9.785156 C 9.199219 9.894531 9.066406 9.960938 8.945312 9.960938 C 8.84375 9.960938 8.757812 9.929688 8.667969 9.871094 L 6.855469 8.492188 C 6.667969 8.347656 6.625 8.105469 6.746094 7.90625 C 7.941406 5.929688 9.617188 4.96875 11.871094 4.96875 C 14.234375 4.96875 16.886719 6.859375 16.886719 9.386719 C 16.886719 11.484375 15.460938 12.292969 14.410156 12.878906 Z M 13.394531 18.664062 C 13.394531 18.90625 13.195312 19.105469 12.953125 19.105469 L 10.304688 19.105469 C 10.058594 19.105469 9.863281 18.90625 9.863281 18.664062 L 9.863281 16.015625 C 9.863281 15.773438 10.058594 15.570312 10.304688 15.570312 L 12.953125 15.570312 C 13.195312 15.570312 13.394531 15.773438 13.394531 16.015625 Z M 12 0 C 5.375 0 0 5.375 0 12 C 0 18.625 5.375 24 12 24 C 18.625 24 24 18.625 24 12 C 24 5.375 18.625 0 12 0 Z M 12 0 "/>
</g>
</svg>
